      <svg viewBox="0 0 46 36" fill="none" xmlns="http://www.w3.org/2000/svg">
        <path
          d="M17.576 1.26167e-05C16.2198 1.26167e-05 15.084 1.09963 15.084 2.4597V28.7948C15.084 30.155 16.2198 31.2707 17.576 31.2707H19.6019L9.53732 33.9396C9.28109 34.0071 9.05392 33.8671 8.99076 33.6342L2.07739 8.19948C2.0128 7.96155 2.12764 7.76847 2.38279 7.701L11.9329 5.177C12.4723 5.05965 12.8233 4.53785 12.7285 3.99415C12.6334 3.45045 12.1263 3.07829 11.5794 3.15115C11.5195 3.15653 11.4602 3.1673 11.4025 3.18309L1.85236 5.70746C0.539236 6.05412 -0.27181 7.43832 0.0838268 8.74603L6.99719 34.1808C7.35391 35.4935 8.73991 36.2637 10.0519 35.917L26.4511 31.5922C26.7124 31.5237 26.9453 31.4088 27.1584 31.2707H34.5541C35.91 31.2707 37.0623 30.1549 37.0623 28.7948C37.0659 28.5192 36.9593 28.254 36.7659 28.0577C36.5724 27.8614 36.3087 27.7512 36.0331 27.7512C35.7578 27.7512 35.4937 27.8614 35.3006 28.0577C35.1072 28.254 35.0002 28.5192 35.0042 28.7948C35.0042 29.0345 34.8215 29.2129 34.5541 29.2129H17.5762C17.3088 29.2129 17.1419 29.0345 17.1419 28.7948V2.45969C17.1419 2.21996 17.3088 2.05775 17.5762 2.05775H34.5541C34.8215 2.05775 35.0042 2.21996 35.0042 2.45969C35.0002 2.7353 35.1072 3.00087 35.3006 3.19681C35.4937 3.39312 35.7578 3.50329 36.0331 3.50329C36.3087 3.50329 36.5724 3.39312 36.7659 3.19681C36.9593 3.00087 37.0659 2.7353 37.0623 2.45969C37.0623 1.09952 35.91 0 34.5541 0L17.576 1.26167e-05ZM19.5053 3.15131C18.9817 3.21699 18.5927 3.66845 18.6049 4.19636V27.0743C18.601 27.3499 18.7079 27.6151 18.901 27.8114C19.0944 28.0077 19.3586 28.1179 19.6338 28.1179C19.9094 28.1179 20.1732 28.0077 20.3667 27.8114C20.5601 27.6151 20.6667 27.3499 20.6631 27.0743V4.19636C20.6699 3.8967 20.5461 3.60924 20.3236 3.40827C20.1014 3.20766 19.8025 3.11364 19.5053 3.15131ZM33.7822 4.61447C32.6787 4.63779 31.5544 4.81185 30.4544 5.17718C24.5875 7.12478 21.4366 13.4442 23.4122 19.229C25.3878 25.0134 31.7578 28.1223 37.6248 26.1743C43.4916 24.2267 46.6584 17.9554 44.6828 12.1712C43.0775 7.47104 38.565 4.5135 33.7822 4.61474L33.7822 4.61447ZM32.9464 6.73653C32.9733 6.7333 32.9999 6.73976 33.0268 6.73653V8.52123C32.1522 8.64325 31.315 8.90882 30.5668 9.30896L29.4897 7.86198C30.0026 7.57273 30.5477 7.33192 31.1295 7.13848C31.7302 6.93895 32.3417 6.81081 32.9464 6.73653ZM35.0846 6.73653C36.3826 6.88115 37.6257 7.29207 38.7344 7.94235C38.551 8.15839 38.4645 8.44011 38.4957 8.72147C38.5269 9.00318 38.6726 9.25942 38.8987 9.42988C39.1245 9.60071 39.4108 9.67069 39.69 9.62332C39.9696 9.57595 40.2169 9.41589 40.3741 9.18047C41.3003 10.054 42.0447 11.1188 42.5445 12.3636L40.7922 12.8298C39.7974 10.5564 37.647 8.88475 35.0846 8.52121L35.0846 6.73653ZM27.8335 9.06778L28.9109 10.5148C28.2354 11.1704 27.6835 11.9603 27.3031 12.8298L25.5346 12.3637C26.0366 11.118 26.8208 9.98935 27.8335 9.06778ZM5.16406 9.11623C4.8741 9.16432 4.61821 9.33406 4.46175 9.58312C4.30492 9.83182 4.26221 10.1358 4.3444 10.4182L9.71422 30.676C9.86065 31.2265 10.4259 31.5542 10.9764 31.4077C11.5269 31.2613 11.8542 30.6961 11.7077 30.1456L6.33792 9.88782C6.21016 9.36207 5.69732 9.02471 5.16406 9.11623ZM34.056 10.4986C36.9804 10.4986 39.3135 12.809 39.3135 15.6919C39.3135 18.5744 36.9804 20.8848 34.056 20.8848C31.1315 20.8848 28.7827 18.5744 28.7827 15.6919C28.7827 12.809 31.1315 10.4986 34.056 10.4986ZM33.9275 11.2063C33.4035 11.272 33.0145 11.7235 33.0271 12.2514V12.4602C32.7005 12.537 32.3915 12.654 32.1105 12.8141C31.5485 13.1335 31.0012 13.7271 31.0012 14.5342C31.0012 15.36 31.6192 15.9317 32.159 16.2062C32.6984 16.4807 33.3013 16.6164 33.9114 16.7047C34.1737 16.7427 34.2932 16.7944 34.4902 16.8493C34.3359 16.8848 34.2466 16.9458 34.056 16.9458H32.1267C31.8514 16.9419 31.5859 17.0488 31.3896 17.2423C31.1936 17.4353 31.0831 17.6995 31.0831 17.9747C31.0831 18.2503 31.1936 18.5141 31.3896 18.7076C31.5859 18.901 31.8514 19.0076 32.1267 19.004H33.0271V19.1163C33.0232 19.3919 33.1297 19.6571 33.3232 19.8534C33.5166 20.0497 33.7804 20.1599 34.056 20.1599C34.3316 20.1599 34.5954 20.0497 34.7888 19.8534C34.9823 19.6571 35.0889 19.3919 35.0849 19.1163V18.8913C35.4075 18.8145 35.7043 18.6975 35.9853 18.5374C36.5473 18.218 37.1108 17.6403 37.1108 16.8335C37.1108 16.0368 36.5082 15.4393 35.9692 15.1612C35.4301 14.8834 34.8344 14.7549 34.2006 14.663C33.9458 14.6261 33.8051 14.559 33.606 14.5023C33.7614 14.466 33.8626 14.4057 34.056 14.4057H35.8726C36.1482 14.4097 36.4138 14.3027 36.6097 14.1093C36.806 13.9162 36.9162 13.6521 36.9162 13.3768C36.9162 13.1012 36.806 12.8374 36.6097 12.644C36.4138 12.4506 36.1482 12.344 35.8726 12.3476H35.0848V12.2514C35.092 11.9517 34.9682 11.6639 34.7457 11.4633C34.5232 11.2627 34.2246 11.1686 33.9275 11.2063ZM24.9883 14.3573L26.7568 14.8238C26.722 15.108 26.7083 15.3987 26.7083 15.6919C26.7083 17.7099 27.5531 19.5387 28.9112 20.8529L27.8181 22.3157C26.9449 21.5154 26.2085 20.5332 25.6956 19.4059C26.234 19.2538 26.5526 18.6993 26.4127 18.1574C26.2727 17.6158 25.7261 17.2846 25.181 17.412C25.143 17.4206 25.1057 17.4314 25.0687 17.4443C24.8577 16.4036 24.8357 15.3636 24.9883 14.3573ZM43.0916 14.3573C43.2513 15.3959 43.2237 16.4348 43.027 17.4282L41.2908 16.8816C41.3569 16.4922 41.3874 16.0993 41.3874 15.692C41.3874 15.3988 41.3737 15.1081 41.3389 14.8238L43.0916 14.3573ZM40.6476 18.8432L42.4 19.3897C41.9033 20.4822 41.1953 21.473 40.2938 22.2999L39.2007 20.8367C39.7907 20.2622 40.2805 19.5857 40.6476 18.8432ZM30.5665 22.0587C31.6033 22.6121 32.7965 22.9268 34.0556 22.9268C35.3146 22.9268 36.4916 22.6121 37.5284 22.0587L38.6215 23.5215C38.1087 23.8107 37.5474 24.0519 36.9657 24.245C36.3387 24.4531 35.7154 24.5913 35.0844 24.6631C35.0668 24.1011 34.6017 23.6575 34.0394 23.6664C33.4899 23.6747 33.0439 24.1136 33.0267 24.6631C31.7659 24.5235 30.558 24.1233 29.4734 23.5057L30.5665 22.0587Z"
          fill="white"
        />
      </svg>